<svg width="556" height="196" viewBox="0 0 556 196" fill="none" xmlns="http://www.w3.org/2000/svg">
<path d="M9.072 188V89.648H46.656C54.336 89.648 60.768 90.752 65.952 92.96C71.232 95.072 75.456 98.192 78.624 102.32C81.792 106.448 84.048 111.44 85.392 117.296C86.832 123.152 87.552 129.824 87.552 137.312C87.552 144.896 86.88 151.76 85.536 157.904C84.288 164.048 82.128 169.376 79.056 173.888C75.984 178.4 71.856 181.904 66.672 184.4C61.488 186.8 55.008 188 47.232 188H9.072ZM28.944 171.296H46.08C50.592 171.296 54.24 170.432 57.024 168.704C59.808 166.976 61.92 164.576 63.36 161.504C64.896 158.336 65.904 154.736 66.384 150.704C66.96 146.576 67.248 142.112 67.248 137.312C67.248 132.704 66.96 128.528 66.384 124.784C65.808 120.944 64.752 117.68 63.216 114.992C61.776 112.208 59.664 110.096 56.88 108.656C54.192 107.12 50.592 106.352 46.08 106.352H28.944V171.296ZM101.295 188V115.712H120.447V124.208C122.079 122.96 124.095 121.664 126.495 120.32C128.895 118.88 131.487 117.584 134.271 116.432C137.151 115.184 139.887 114.368 142.479 113.984V132.56C139.983 132.944 137.343 133.616 134.559 134.576C131.775 135.44 129.135 136.4 126.639 137.456C124.239 138.512 122.175 139.472 120.447 140.336V188H101.295ZM181.715 189.584C173.747 189.584 167.411 188.24 162.707 185.552C158.099 182.864 154.787 178.784 152.771 173.312C150.755 167.84 149.747 160.976 149.747 152.72C149.747 143.792 150.995 136.496 153.491 130.832C156.083 125.168 159.827 120.992 164.723 118.304C169.619 115.52 175.667 114.128 182.867 114.128C193.523 114.128 201.539 116.816 206.915 122.192C212.387 127.568 215.123 136.064 215.123 147.68L214.259 158.336H169.043C169.139 163.712 170.243 167.744 172.355 170.432C174.467 173.12 178.115 174.464 183.299 174.464C186.275 174.464 189.539 174.416 193.091 174.32C196.643 174.128 200.147 173.936 203.603 173.744C207.155 173.552 210.179 173.36 212.675 173.168L213.107 186.56C210.707 186.944 207.683 187.376 204.035 187.856C200.387 188.336 196.595 188.72 192.659 189.008C188.819 189.392 185.171 189.584 181.715 189.584ZM169.043 146.096H195.971C195.971 139.568 194.915 135.008 192.803 132.416C190.787 129.824 187.475 128.528 182.867 128.528C178.355 128.528 174.899 129.872 172.499 132.56C170.195 135.248 169.043 139.76 169.043 146.096ZM246.722 189.584C239.234 189.584 233.57 187.712 229.73 183.968C225.986 180.128 224.114 174.368 224.114 166.688C224.114 161.312 225.074 157.136 226.994 154.16C228.914 151.088 231.746 148.88 235.49 147.536C239.33 146.096 243.986 145.232 249.458 144.944L267.026 143.36V139.04C267.026 135.584 266.162 133.184 264.434 131.84C262.706 130.4 260.162 129.68 256.802 129.68C254.114 129.68 250.994 129.776 247.442 129.968C243.986 130.16 240.53 130.4 237.074 130.688C233.714 130.976 230.786 131.264 228.29 131.552L227.714 118.016C230.21 117.44 233.186 116.864 236.642 116.288C240.194 115.616 243.89 115.088 247.73 114.704C251.57 114.32 255.122 114.128 258.386 114.128C264.53 114.128 269.666 114.896 273.794 116.432C277.922 117.968 281.042 120.512 283.154 124.064C285.266 127.52 286.322 132.224 286.322 138.176V171.152C286.514 172.496 287.234 173.552 288.482 174.32C289.73 174.992 291.17 175.472 292.802 175.76L292.37 189.008C290.066 189.104 287.81 189.152 285.602 189.152C283.394 189.152 281.522 189.008 279.986 188.72C277.778 188.432 275.858 187.856 274.226 186.992C272.69 186.128 271.442 185.216 270.482 184.256C268.946 184.928 266.882 185.696 264.29 186.56C261.698 187.424 258.866 188.144 255.794 188.72C252.818 189.296 249.794 189.584 246.722 189.584ZM251.33 175.328C253.154 175.328 255.074 175.136 257.09 174.752C259.106 174.368 260.978 173.936 262.706 173.456C264.53 172.88 265.97 172.352 267.026 171.872V155.312L252.338 156.608C249.17 156.896 246.866 157.856 245.426 159.488C244.082 161.024 243.41 163.232 243.41 166.112C243.41 168.992 244.034 171.248 245.282 172.88C246.626 174.512 248.642 175.328 251.33 175.328ZM303.233 188V115.712H322.385V120.32C324.593 118.976 327.569 117.632 331.312 116.288C335.057 114.848 338.609 114.128 341.969 114.128C346.385 114.128 349.985 114.752 352.769 116C355.553 117.152 357.857 118.88 359.681 121.184C361.409 120.128 363.569 119.072 366.161 118.016C368.753 116.96 371.585 116.048 374.656 115.28C377.729 114.512 380.705 114.128 383.585 114.128C390.689 114.128 396.113 115.376 399.857 117.872C403.601 120.368 406.193 124.304 407.633 129.68C409.073 134.96 409.793 141.872 409.793 150.416V188H390.641V152.144C390.641 147.152 390.353 143.12 389.777 140.048C389.297 136.88 388.241 134.576 386.609 133.136C385.073 131.696 382.721 130.976 379.553 130.976C376.769 130.976 374.033 131.36 371.344 132.128C368.656 132.896 366.545 133.664 365.009 134.432C365.489 136.448 365.825 139.04 366.017 142.208C366.305 145.376 366.449 148.688 366.449 152.144V188H347.297V152.432C347.297 147.344 347.009 143.216 346.433 140.048C345.953 136.88 344.897 134.576 343.265 133.136C341.633 131.696 339.281 130.976 336.209 130.976C333.521 130.976 330.881 131.36 328.289 132.128C325.793 132.896 323.825 133.664 322.385 134.432V188H303.233ZM451.078 189.584C447.91 189.584 444.502 189.392 440.854 189.008C437.302 188.72 433.942 188.336 430.774 187.856C427.702 187.376 425.062 186.896 422.854 186.416L423.43 172.16C425.926 172.448 428.71 172.784 431.782 173.168C434.95 173.552 438.022 173.888 440.998 174.176C444.07 174.368 446.566 174.464 448.486 174.464C451.366 174.464 453.718 174.224 455.542 173.744C457.462 173.264 458.902 172.496 459.862 171.44C460.822 170.288 461.302 168.656 461.302 166.544C461.302 164.912 460.87 163.664 460.006 162.8C459.238 161.936 457.702 161.216 455.398 160.64C453.19 159.968 449.926 159.296 445.606 158.624C440.23 157.856 435.766 156.752 432.214 155.312C428.758 153.872 426.214 151.76 424.582 148.976C422.95 146.096 422.134 142.208 422.134 137.312C422.134 131.36 423.43 126.704 426.022 123.344C428.614 119.984 432.07 117.632 436.39 116.288C440.71 114.848 445.414 114.128 450.502 114.128C453.862 114.128 457.318 114.32 460.87 114.704C464.422 114.992 467.782 115.376 470.95 115.856C474.118 116.336 476.758 116.816 478.87 117.296L478.294 131.84C475.894 131.456 473.11 131.12 469.942 130.832C466.774 130.448 463.606 130.16 460.438 129.968C457.366 129.776 454.774 129.68 452.662 129.68C450.454 129.68 448.486 129.92 446.758 130.4C445.03 130.784 443.686 131.456 442.726 132.416C441.862 133.376 441.43 134.816 441.43 136.736C441.43 138.08 441.814 139.184 442.582 140.048C443.35 140.912 444.79 141.68 446.902 142.352C449.11 142.928 452.278 143.504 456.406 144.08C462.358 144.944 467.11 146.144 470.662 147.68C474.214 149.216 476.758 151.424 478.294 154.304C479.926 157.184 480.742 161.072 480.742 165.968C480.742 174.704 478.15 180.848 472.966 184.4C467.878 187.856 460.582 189.584 451.078 189.584Z" fill="#2D9CDB"/>
<path d="M544.832 73.4402C544.989 73.0896 544.932 72.6801 544.684 72.3864C544.436 72.0928 544.042 71.967 543.67 72.0628L490.241 85.8216C489.844 85.9239 489.55 86.2581 489.498 86.6649C489.447 87.0717 489.649 87.4686 490.009 87.6662L512.141 99.8395L520.412 123.706C520.546 124.094 520.903 124.36 521.313 124.378C521.722 124.396 522.101 124.162 522.269 123.788L544.832 73.4402Z" fill="#2D9CDB" stroke="#2D9CDB" stroke-width="2" stroke-linecap="round" stroke-linejoin="round"/>
</svg>
