<svg width="524" height="121" viewBox="0 0 524 121" fill="none" xmlns="http://www.w3.org/2000/svg">
<path opacity="0.1" fill-rule="evenodd" clip-rule="evenodd" d="M523.745 2.84915C524.059 2.14803 523.944 1.32889 523.448 0.741637C522.953 0.15438 522.165 -0.0971744 521.421 0.0944252L467.992 13.8532C467.198 14.0577 466.609 14.7263 466.506 15.5399C466.404 16.3535 466.808 17.1472 467.527 17.5424L489.322 29.5304L497.467 53.0338C497.735 53.8086 498.45 54.3411 499.269 54.377C500.088 54.413 500.846 53.9452 501.182 53.1969L523.745 2.84915ZM498.401 49.6211L490.96 28.1487L471.048 17.1967L468.49 15.79L471.317 15.0621L519.442 2.66925L521.92 2.03124L520.873 4.36592L500.55 49.7154L499.357 52.3789L498.401 49.6211ZM0.071991 117V119H2.07199H40.232C48.1992 119 54.9878 117.773 60.5122 115.215L60.526 115.209L60.5396 115.202C66.0226 112.562 70.4285 108.832 73.7092 104.014C76.9488 99.2554 79.1994 93.6769 80.493 87.317C81.8711 81.0111 82.552 74.0055 82.552 66.312C82.552 58.7062 81.8217 51.8741 80.3378 45.8332C78.939 39.747 76.5756 34.487 73.2106 30.1024C69.808 25.6686 65.2875 22.3438 59.7152 20.1112C54.2148 17.7727 47.5037 16.648 39.656 16.648H2.07199H0.071991V18.648V117ZM80.552 66.312C80.552 73.896 79.88 80.76 78.536 86.904C77.288 93.048 75.128 98.376 72.056 102.888C68.984 107.4 64.856 110.904 59.672 113.4C54.488 115.8 48.008 117 40.232 117H4.07199H2.07199V115V20.648V18.648H4.07199H39.656C47.336 18.648 53.768 19.752 58.952 21.96C64.232 24.072 68.456 27.192 71.624 31.32C74.792 35.448 77.048 40.44 78.392 46.296C79.832 52.152 80.552 58.824 80.552 66.312ZM54.5604 89.6314L54.5546 89.6432L54.5491 89.6551C53.2673 92.3895 51.4121 94.4885 48.9693 96.0047C46.5999 97.4753 43.3545 98.296 39.08 98.296H23.944V37.352H39.08C43.3928 37.352 46.6092 38.0905 48.8877 39.3925L48.924 39.4132L48.9611 39.4324C51.3774 40.6822 53.1898 42.4946 54.4396 44.9108L54.4588 44.948L54.4795 44.9843C55.8659 47.4104 56.8579 50.4256 57.4061 54.0807L57.4072 54.0881C57.9649 57.7127 58.248 61.7849 58.248 66.312C58.248 71.0331 57.9647 75.4037 57.4032 79.4276L57.4004 79.4476L57.398 79.4676C56.9404 83.3119 55.9857 86.6917 54.5604 89.6314ZM21.944 100.296H23.944H39.08C43.592 100.296 47.24 99.432 50.024 97.704C52.808 95.976 54.92 93.576 56.36 90.504C57.896 87.336 58.904 83.736 59.384 79.704C59.96 75.576 60.248 71.112 60.248 66.312C60.248 61.704 59.96 57.528 59.384 53.784C58.808 49.944 57.752 46.68 56.216 43.992C54.776 41.208 52.664 39.096 49.88 37.656C47.192 36.12 43.592 35.352 39.08 35.352H23.944H21.944V37.352V98.296V100.296ZM92.295 117V119H94.295H113.447H115.447V117V70.5813C116.894 69.8812 118.555 69.1183 120.431 68.2924C122.858 67.2662 125.431 66.3304 128.152 65.4861L128.182 65.4769L128.211 65.4667C130.9 64.5395 133.423 63.8998 135.783 63.5367L137.479 63.2758V61.56V42.984V40.6659L135.186 41.0056C132.396 41.419 129.495 42.2897 126.491 43.5903C123.638 44.7715 120.971 46.1039 118.492 47.5895C117.407 48.1976 116.391 48.8002 115.447 49.3974V44.712V42.712H113.447H94.295H92.295V44.712V117ZM119.639 66.456C117.239 67.512 115.175 68.472 113.447 69.336V115V117H111.447H96.295H94.295V115V46.712V44.712H96.295H111.447H113.447V46.712V50.729V53.208C114.06 52.7396 114.726 52.2644 115.447 51.7824C116.646 50.9803 117.996 50.1595 119.495 49.32C121.895 47.88 124.487 46.584 127.271 45.432C129.421 44.5005 131.49 43.8097 133.479 43.3595C134.155 43.2066 134.822 43.0814 135.479 42.984V45.0077V61.56C132.983 61.944 130.343 62.616 127.559 63.576C124.775 64.44 122.135 65.4 119.639 66.456ZM154.699 116.28L154.706 116.284L154.714 116.288C159.83 119.212 166.551 120.584 174.715 120.584C178.236 120.584 181.942 120.389 185.831 120.001C189.793 119.71 193.615 119.323 197.295 118.839C200.954 118.358 203.997 117.923 206.422 117.535L208.162 117.257L208.105 115.496L207.673 102.104L207.606 100.014L205.521 100.174C203.045 100.364 200.037 100.555 196.495 100.747L196.492 100.747C193.045 100.939 189.552 101.13 186.01 101.321C182.483 101.417 179.246 101.464 176.298 101.464C171.404 101.464 168.497 100.194 166.927 98.1964C165.436 96.2992 164.439 93.415 164.134 89.336H207.258H209.103L209.252 87.4976L210.116 76.8416L210.122 76.7609V76.68C210.122 64.8041 207.331 55.6795 201.323 49.7718C195.443 43.8956 186.833 41.128 175.866 41.128C168.42 41.128 162.014 42.5663 156.747 45.558C151.437 48.4769 147.419 52.997 144.672 58.9997L144.666 59.0126L144.66 59.0255C142.014 65.0301 140.746 72.6276 140.746 81.72C140.746 90.1217 141.77 97.2387 143.894 103.003C146.054 108.868 149.651 113.335 154.699 116.28ZM197.034 116.856C193.387 117.336 189.594 117.72 185.659 118.008C181.818 118.392 178.171 118.584 174.715 118.584C166.746 118.584 160.41 117.24 155.706 114.552C151.098 111.864 147.786 107.784 145.771 102.312C143.754 96.84 142.746 89.976 142.746 81.72C142.746 72.792 143.995 65.496 146.49 59.832C149.082 54.168 152.827 49.992 157.723 47.304C162.618 44.52 168.667 43.128 175.866 43.128C186.522 43.128 194.538 45.816 199.914 51.192C205.387 56.568 208.122 65.064 208.122 76.68L207.258 87.336H164.043H162.042C162.055 88.0247 162.084 88.6914 162.129 89.336C162.438 93.723 163.513 97.0884 165.354 99.432C167.466 102.12 171.115 103.464 176.298 103.464C179.275 103.464 182.538 103.416 186.09 103.32C189.642 103.128 193.146 102.936 196.603 102.744C199.256 102.601 201.614 102.457 203.678 102.314C204.377 102.265 205.043 102.217 205.674 102.168L205.739 104.169L206.107 115.56C203.706 115.944 200.682 116.376 197.034 116.856ZM184.224 62.6439L184.238 62.6618L184.252 62.6793C185.724 64.4859 186.733 67.8234 186.934 73.096H164.085C164.308 68.0588 165.389 64.7722 167.004 62.8766C168.932 60.7263 171.78 59.528 175.866 59.528C180.12 59.528 182.723 60.7147 184.224 62.6439ZM188.97 75.096C188.97 74.4074 188.959 73.7408 188.935 73.096C188.736 67.6279 187.692 63.7346 185.802 61.416C183.786 58.824 180.474 57.528 175.866 57.528C171.354 57.528 167.898 58.872 165.499 61.56C163.445 63.956 162.306 67.8014 162.083 73.096C162.056 73.7411 162.042 74.4078 162.042 75.096H164.042H186.97H188.97ZM221.297 114.364L221.315 114.382L221.333 114.4C225.674 118.632 231.921 120.584 239.721 120.584C242.918 120.584 246.067 120.284 249.168 119.685C252.315 119.094 255.234 118.353 257.922 117.457C259.935 116.786 261.658 116.165 263.081 115.592C263.999 116.356 265.059 117.068 266.245 117.735L266.267 117.748L266.29 117.76C268.157 118.748 270.296 119.381 272.672 119.696C274.356 120.007 276.341 120.152 278.602 120.152C280.838 120.152 283.122 120.103 285.453 120.006L287.308 119.929L287.368 118.073L287.8 104.825L287.857 103.092L286.149 102.79C284.717 102.538 283.504 102.129 282.483 101.588C281.774 101.138 281.441 100.625 281.322 99.991V67.176C281.322 61.0225 280.235 55.9129 277.865 52.0297C275.504 48.0648 272.012 45.2398 267.491 43.5576C263.071 41.9128 257.681 41.128 251.385 41.128C248.044 41.128 244.425 41.3245 240.53 41.7139C236.644 42.1026 232.897 42.6372 229.291 43.3188C225.817 43.8981 222.806 44.4805 220.264 45.0672L218.645 45.4409L218.715 47.101L219.291 60.637L219.383 62.7853L221.519 62.5388C223.99 62.2537 226.897 61.9676 230.243 61.6808C233.679 61.3945 237.116 61.1558 240.552 60.9649C244.078 60.7744 247.16 60.68 249.802 60.68C252.916 60.68 254.925 61.353 256.153 62.3764L256.179 62.398L256.206 62.4187C257.219 63.2072 258.026 64.8411 258.026 68.04V70.5322L242.315 71.9487C236.724 72.2458 231.872 73.1336 227.8 74.6585C223.688 76.1374 220.484 78.6075 218.305 82.0884C216.1 85.5131 215.113 90.1197 215.113 95.688C215.113 103.664 217.057 110.015 221.297 114.364ZM257.289 115.56C254.698 116.424 251.866 117.144 248.793 117.72C245.818 118.296 242.793 118.584 239.721 118.584C232.233 118.584 226.569 116.712 222.729 112.968C218.986 109.128 217.113 103.368 217.113 95.688C217.113 90.312 218.073 86.136 219.993 83.16C221.913 80.088 224.745 77.88 228.49 76.536C232.329 75.096 236.986 74.232 242.457 73.944L260.026 72.36V68.04C260.026 64.584 259.161 62.184 257.434 60.84C255.706 59.4 253.161 58.68 249.802 58.68C247.113 58.68 243.993 58.776 240.441 58.968C236.986 59.16 233.529 59.4 230.073 59.688C227.57 59.9026 225.306 60.1172 223.282 60.3318C222.59 60.4052 221.926 60.4786 221.289 60.552L221.204 58.5486L220.714 47.016C223.21 46.44 226.185 45.864 229.641 45.288C233.193 44.616 236.889 44.088 240.729 43.704C244.569 43.32 248.121 43.128 251.385 43.128C257.53 43.128 262.665 43.896 266.793 45.432C270.922 46.968 274.042 49.512 276.154 53.064C278.266 56.52 279.322 61.224 279.322 67.176V100.152C279.513 101.496 280.233 102.552 281.482 103.32C282.729 103.992 284.169 104.472 285.802 104.76L285.37 118.008C283.065 118.104 280.81 118.152 278.602 118.152C276.393 118.152 274.522 118.008 272.986 117.72C270.777 117.432 268.858 116.856 267.225 115.992C265.69 115.128 264.441 114.216 263.482 113.256C261.945 113.928 259.882 114.696 257.289 115.56ZM249.715 101.787C247.808 102.151 246.013 102.328 244.329 102.328C242.083 102.328 240.714 101.67 239.848 100.636C238.968 99.4684 238.409 97.7037 238.409 95.112C238.409 92.5213 239.014 90.8543 239.928 89.808C240.902 88.7061 242.629 87.8629 245.516 87.6L245.519 87.5998L258.026 86.4962V99.5394C257.234 99.8455 256.273 100.179 255.136 100.538C253.478 100.998 251.671 101.415 249.715 101.787ZM236.409 95.112C236.409 97.992 237.034 100.248 238.281 101.88C239.625 103.512 241.641 104.328 244.329 104.328C246.154 104.328 248.073 104.136 250.09 103.752C252.105 103.368 253.978 102.936 255.706 102.456C257.53 101.88 258.97 101.352 260.026 100.872V86.3198V84.312L258.026 84.4885L245.337 85.608C242.169 85.896 239.865 86.856 238.426 88.488C237.081 90.024 236.409 92.232 236.409 95.112ZM294.233 117V119H296.233H315.384H317.384V117V64.6797C318.553 64.1528 320.04 63.6049 321.867 63.0426C324.272 62.3309 326.717 61.976 329.208 61.976C331.992 61.976 333.801 62.6292 334.941 63.6357C336.088 64.6472 337.013 66.4312 337.455 69.3476L337.46 69.3768L337.465 69.4058C338.011 72.4083 338.297 76.4036 338.297 81.432V117V119H340.297H359.449H361.449V117V81.144C361.449 77.6435 361.303 74.2808 361.011 71.0568C360.861 68.602 360.625 66.4434 360.292 64.5967C361.515 64.0968 363.043 63.5799 364.894 63.051C367.404 62.3339 369.955 61.976 372.552 61.976C375.463 61.976 377.225 62.6427 378.241 63.5951L378.263 63.6157L378.285 63.6357C379.432 64.6472 380.357 66.4312 380.799 69.3476L380.804 69.3822L380.811 69.4166C381.355 72.3173 381.641 76.2119 381.641 81.144V117V119H383.641H402.793H404.793V117V79.416C404.793 70.7821 404.067 63.6735 402.562 58.1543C401.027 52.4285 398.202 48.0319 393.966 45.2079C389.754 42.3998 383.873 41.128 376.585 41.128C373.526 41.128 370.387 41.5359 367.171 42.3397C364.019 43.1277 361.096 44.0678 358.406 45.1638C356.417 45.974 354.649 46.7952 353.11 47.6304C351.281 45.7051 349.091 44.2143 346.56 43.163C343.435 41.7684 339.537 41.128 334.969 41.128C331.327 41.128 327.538 41.9071 323.615 43.4133C321.27 44.2558 319.189 45.1093 317.384 45.9773V44.712V42.712H315.384H296.233H294.233V44.712V117ZM321.289 61.128C318.793 61.896 316.824 62.664 315.384 63.432V115V117H313.384H298.233H296.233V115V46.712V44.712H298.233H313.384H315.384V46.712V47.0079V49.32C315.993 48.9497 316.66 48.5794 317.384 48.2091C319.291 47.2354 321.6 46.2617 324.312 45.288C328.056 43.848 331.608 43.128 334.969 43.128C339.384 43.128 342.984 43.752 345.768 45C348.552 46.152 350.857 47.88 352.681 50.184C354.409 49.128 356.569 48.072 359.16 47.016C361.753 45.96 364.585 45.048 367.656 44.28C370.729 43.512 373.704 43.128 376.585 43.128C383.689 43.128 389.113 44.376 392.857 46.872C396.6 49.368 399.193 53.304 400.633 58.68C402.073 63.96 402.793 70.872 402.793 79.416V115V117H400.793H385.641H383.641V115V81.144C383.641 76.152 383.353 72.12 382.776 69.048C382.297 65.88 381.241 63.576 379.608 62.136C378.073 60.696 375.721 59.976 372.552 59.976C369.768 59.976 367.033 60.36 364.345 61.128C361.656 61.896 359.544 62.664 358.009 63.432C358.488 65.448 358.824 68.04 359.017 71.208C359.305 74.376 359.449 77.688 359.449 81.144V115V117H357.449H342.297H340.297V115V81.432C340.297 76.344 340.009 72.216 339.432 69.048C338.953 65.88 337.897 63.576 336.264 62.136C334.633 60.696 332.28 59.976 329.208 59.976C326.521 59.976 323.88 60.36 321.289 61.128ZM423.465 118.832L423.474 118.833C426.686 119.32 430.084 119.708 433.669 120C437.366 120.388 440.837 120.584 444.078 120.584C453.78 120.584 461.535 118.828 467.09 115.054L467.096 115.05C473.02 110.991 475.742 104.084 475.742 94.968C475.742 89.8921 474.903 85.629 473.047 82.3412C471.259 79.0018 468.335 76.5217 464.456 74.8443C460.678 73.2109 455.735 71.9777 449.693 71.1007L449.682 71.0992C445.613 70.5314 442.552 69.9725 440.458 69.4301C438.46 68.7892 437.469 68.1609 437.077 67.7193C436.686 67.28 436.43 66.6748 436.43 65.736C436.43 64.119 436.788 63.2497 437.18 62.7903C437.802 62.1868 438.756 61.6715 440.192 61.3524L440.243 61.341L440.293 61.327C441.812 60.9051 443.595 60.68 445.662 60.68C447.718 60.68 450.266 60.7736 453.313 60.9641L453.317 60.9643C456.445 61.1539 459.573 61.4383 462.701 61.8175L462.731 61.8211L462.761 61.8238C465.896 62.1088 468.634 62.4398 470.978 62.8149L473.203 63.1709L473.292 60.9191L473.868 46.3751L473.934 44.7141L472.313 44.3457C470.137 43.8512 467.445 43.3628 464.249 42.8786C461.039 42.3921 457.641 42.0038 454.058 41.7127C450.449 41.3234 446.93 41.128 443.502 41.128C438.231 41.128 433.318 41.873 428.776 43.3842C424.1 44.8429 420.294 47.4198 417.438 51.1224C414.486 54.9489 413.134 60.0921 413.134 66.312C413.134 71.3997 413.977 75.671 415.842 78.962L415.849 78.9748L415.856 78.9874C417.742 82.2041 420.654 84.5789 424.445 86.1581L424.453 86.1619L424.462 86.1655C428.21 87.6847 432.84 88.8199 438.31 89.6021C442.598 90.2693 445.747 90.9237 447.815 91.5533L447.864 91.568L447.913 91.5803C450.163 92.1428 451.173 92.7486 451.511 93.1287L451.55 93.1727L451.592 93.2142C451.968 93.5906 452.302 94.2586 452.302 95.544C452.302 97.347 451.897 98.4531 451.352 99.1268C450.739 99.7854 449.71 100.39 448.057 100.804L448.045 100.807L448.033 100.81C446.438 101.23 444.274 101.464 441.486 101.464C439.631 101.464 437.193 101.371 434.157 101.182C431.209 100.896 428.165 100.563 425.025 100.183C421.95 99.7985 419.161 99.4619 416.659 99.1732L414.518 98.9262L414.431 101.079L413.855 115.335L413.788 117.014L415.429 117.37C417.687 117.861 420.367 118.348 423.465 118.832ZM444.078 118.584C440.91 118.584 437.502 118.392 433.854 118.008C430.302 117.72 426.942 117.336 423.774 116.856C420.702 116.376 418.062 115.896 415.854 115.416L416.349 103.164L416.43 101.16C417.075 101.234 417.739 101.312 418.422 101.393C420.384 101.625 422.503 101.883 424.782 102.168C427.95 102.552 431.022 102.888 433.998 103.176C437.07 103.368 439.566 103.464 441.486 103.464C444.366 103.464 446.718 103.224 448.542 102.744C450.462 102.264 451.902 101.496 452.862 100.44C453.822 99.288 454.302 97.656 454.302 95.544C454.302 93.912 453.87 92.664 453.006 91.8C452.238 90.936 450.702 90.216 448.398 89.64C446.19 88.968 442.926 88.296 438.606 87.624C433.23 86.856 428.766 85.752 425.214 84.312C421.758 82.872 419.214 80.76 417.582 77.976C415.95 75.096 415.134 71.208 415.134 66.312C415.134 60.36 416.43 55.704 419.022 52.344C421.614 48.984 425.07 46.632 429.39 45.288C433.71 43.848 438.414 43.128 443.502 43.128C446.862 43.128 450.318 43.32 453.87 43.704C457.422 43.992 460.782 44.376 463.95 44.856C467.118 45.336 469.758 45.816 471.87 46.296L471.373 58.8277L471.294 60.84C470.657 60.7382 469.994 60.6398 469.304 60.5447C467.391 60.2812 465.27 60.0436 462.942 59.832C459.774 59.448 456.606 59.16 453.438 58.968C450.366 58.776 447.774 58.68 445.662 58.68C443.454 58.68 441.486 58.92 439.758 59.4C438.03 59.784 436.686 60.456 435.726 61.416C434.862 62.376 434.43 63.816 434.43 65.736C434.43 67.08 434.814 68.184 435.582 69.048C436.35 69.912 437.79 70.68 439.902 71.352C442.11 71.928 445.278 72.504 449.406 73.08C455.358 73.944 460.11 75.144 463.662 76.68C467.214 78.216 469.758 80.424 471.294 83.304C472.926 86.184 473.742 90.072 473.742 94.968C473.742 103.704 471.15 109.848 465.966 113.4C460.878 116.856 453.582 118.584 444.078 118.584Z" fill="#ffff"/>
</svg>
