<svg width="50" height="50" viewBox="0 0 50 50" fill="none" xmlns="http://www.w3.org/2000/svg">
<path d="M3.125 21.875H21.875V3.125H3.125V21.875ZM9.375 9.375H15.625V15.625H9.375V9.375ZM28.125 3.125V21.875H46.875V3.125H28.125ZM40.625 15.625H34.375V9.375H40.625V15.625ZM3.125 46.875H21.875V28.125H3.125V46.875ZM9.375 34.375H15.625V40.625H9.375V34.375ZM43.75 28.125H46.875V40.625H37.5V37.5H34.375V46.875H28.125V28.125H37.5V31.25H43.75V28.125ZM43.75 43.75H46.875V46.875H43.75V43.75ZM37.5 43.75H40.625V46.875H37.5V43.75Z" fill="#181A22"/>
</svg>
